<?xml version="1.0" encoding="utf-8"?>
<!-- Generator: Adobe Illustrator 16.0.0, SVG Export Plug-In . SVG Version: 6.00 Build 0)  -->
<!DOCTYPE svg PUBLIC "-//W3C//DTD SVG 1.1//EN" "http://www.w3.org/Graphics/SVG/1.1/DTD/svg11.dtd">
<svg version="1.1" id="Layer_1" xmlns="http://www.w3.org/2000/svg" xmlns:xlink="http://www.w3.org/1999/xlink" x="0px" y="0px"
	 width="45.333px" height="38.333px" viewBox="0 0 45.333 38.333" enable-background="new 0 0 45.333 38.333" xml:space="preserve">
<image overflow="visible" width="225" height="225" xlink:href="A5D6F22E.jpg"  transform="matrix(1 0 0 1 -8167 -8177.3335)">
</image>
<image overflow="visible" width="225" height="225" xlink:href="A5D6F232.jpg"  transform="matrix(1 0 0 1 -8167 -8177.3335)">
</image>
<image overflow="visible" width="225" height="225" xlink:href="A5D6F235.jpg"  transform="matrix(1 0 0 1 -8167 -8177.3335)">
</image>
<image overflow="visible" width="225" height="225" xlink:href="A5D6F236.jpg"  transform="matrix(1 0 0 1 -8167 -8177.3335)">
</image>
<image overflow="visible" width="225" height="225" xlink:href="A5D6F234.jpg"  transform="matrix(1 0 0 1 -8167 -8177.3335)">
</image>
<path fill-rule="evenodd" clip-rule="evenodd" fill="#F8F8F8" d="M22.822,7.636c1.37-1.995,3.16-3.518,5.496-4.251
	c4.351-1.368,8.311-0.599,11.519,2.692c3.225,3.309,4.046,7.277,2.402,11.637c-1.297,3.438-3.684,6.121-6.289,8.61
	c-3.799,3.632-8.081,6.622-12.61,9.262c-0.279,0.162-0.794,0.233-1.044,0.086c-6.086-3.604-11.825-7.655-16.274-13.255
	c-2.275-2.865-3.824-6.013-3.519-9.862c0.372-4.683,4.803-9.256,9.469-9.697c4.303-0.408,7.813,0.945,10.438,4.435
	c0.059,0.078,0.118,0.159,0.189,0.227C22.641,7.56,22.708,7.578,22.822,7.636z"/>
</svg>
